<mxfile host="app.diagrams.net" modified="2024-05-28T09:45:24.798Z" agent="Mozilla/5.0 (Macintosh; Intel Mac OS X 10_15_7) AppleWebKit/537.36 (KHTML, like Gecko) Chrome/124.0.0.0 Safari/537.36" etag="uk4bwluRniBGhhJyh-RX" version="24.4.8" type="device">
  <diagram name="Page-1" id="97916047-d0de-89f5-080d-49f4d83e522f">
    <mxGraphModel dx="1485" dy="1141" grid="1" gridSize="10" guides="1" tooltips="1" connect="1" arrows="1" fold="1" page="1" pageScale="1.5" pageWidth="1169" pageHeight="827" background="#ffffff" math="0" shadow="1">
      <root>
        <mxCell id="0" />
        <mxCell id="1" parent="0" />
        <mxCell id="a8Q7tfqqY6BaiDd8TQdQ-55" value="&lt;font style=&quot;font-size: 36px&quot;&gt;Flutter Application&lt;br&gt;(dart)&lt;/font&gt;" style="rounded=1;whiteSpace=wrap;html=1;fillColor=#CCFF99;" parent="1" vertex="1">
          <mxGeometry x="80" y="40" width="640" height="120" as="geometry" />
        </mxCell>
        <mxCell id="a8Q7tfqqY6BaiDd8TQdQ-56" value="&lt;font style=&quot;font-size: 36px&quot;&gt;React Native Application&lt;br&gt;(Javascript)&lt;/font&gt;" style="rounded=1;whiteSpace=wrap;html=1;fillColor=#FFFFCC;" parent="1" vertex="1">
          <mxGeometry x="760" y="40" width="640" height="120" as="geometry" />
        </mxCell>
        <mxCell id="a8Q7tfqqY6BaiDd8TQdQ-58" value="&lt;font style=&quot;font-size: 36px&quot;&gt;&lt;font&gt;Flutter Sound&lt;br&gt;&lt;/font&gt;&lt;font&gt;(Dart)&lt;/font&gt;&lt;/font&gt;" style="rounded=1;whiteSpace=wrap;html=1;strokeColor=#000000;fillColor=#CCFF99;" parent="1" vertex="1">
          <mxGeometry x="80" y="200" width="640" height="120" as="geometry" />
        </mxCell>
        <mxCell id="a8Q7tfqqY6BaiDd8TQdQ-59" value="&lt;font&gt;&lt;font style=&quot;font-size: 36px&quot;&gt;Tau RN&lt;br&gt;(Javascript)&lt;/font&gt;&lt;br&gt;&lt;/font&gt;" style="rounded=1;whiteSpace=wrap;html=1;fillColor=#FFFFCC;" parent="1" vertex="1">
          <mxGeometry x="760" y="200" width="640" height="120" as="geometry" />
        </mxCell>
        <mxCell id="a8Q7tfqqY6BaiDd8TQdQ-77" style="edgeStyle=orthogonalEdgeStyle;rounded=0;orthogonalLoop=1;jettySize=auto;html=1;exitX=0.5;exitY=1;exitDx=0;exitDy=0;" parent="1" source="a8Q7tfqqY6BaiDd8TQdQ-60" edge="1">
          <mxGeometry relative="1" as="geometry">
            <mxPoint x="220" y="1080" as="targetPoint" />
          </mxGeometry>
        </mxCell>
        <mxCell id="a8Q7tfqqY6BaiDd8TQdQ-60" value="&lt;font style=&quot;font-size: 24px&quot;&gt;Tau Core Engine&lt;br&gt;Web&lt;br&gt;(Javascript)&lt;/font&gt;" style="rounded=1;whiteSpace=wrap;html=1;fillColor=#CCFF99;" parent="1" vertex="1">
          <mxGeometry x="80" y="880" width="280" height="120" as="geometry" />
        </mxCell>
        <mxCell id="a8Q7tfqqY6BaiDd8TQdQ-64" value="&lt;font&gt;&lt;font style=&quot;font-size: 24px&quot;&gt;Tau Core Engine&lt;br&gt;Linux&lt;br&gt;(C++ ?)&lt;/font&gt;&lt;br&gt;&lt;/font&gt;" style="rounded=1;whiteSpace=wrap;html=1;fillColor=#FFFFCC;" parent="1" vertex="1">
          <mxGeometry x="440" y="880" width="280" height="120" as="geometry" />
        </mxCell>
        <mxCell id="a8Q7tfqqY6BaiDd8TQdQ-65" value="&lt;font&gt;&lt;font style=&quot;font-size: 24px&quot;&gt;Tau Core Engine&lt;br&gt;iOS&lt;br&gt;(Objective C)&lt;/font&gt;&lt;br&gt;&lt;/font&gt;" style="rounded=1;whiteSpace=wrap;html=1;fillColor=#CCFF99;" parent="1" vertex="1">
          <mxGeometry x="800" y="880" width="280" height="120" as="geometry" />
        </mxCell>
        <mxCell id="a8Q7tfqqY6BaiDd8TQdQ-66" value="&lt;font style=&quot;font-size: 24px&quot;&gt;Tau Core Engine&lt;br&gt;Android&lt;br&gt;(Java)&lt;/font&gt;" style="rounded=1;whiteSpace=wrap;html=1;fillColor=#CCFF99;" parent="1" vertex="1">
          <mxGeometry x="1160" y="880" width="280" height="120" as="geometry" />
        </mxCell>
        <mxCell id="a8Q7tfqqY6BaiDd8TQdQ-67" value="&lt;font style=&quot;font-size: 24px&quot;&gt;Web Plugin&lt;br&gt;(Dart)&lt;/font&gt;" style="rounded=1;whiteSpace=wrap;html=1;fillColor=#CCFF99;" parent="1" vertex="1">
          <mxGeometry x="80" y="520" width="240" height="160" as="geometry" />
        </mxCell>
        <mxCell id="a8Q7tfqqY6BaiDd8TQdQ-68" value="&lt;font style=&quot;font-size: 18px&quot;&gt;Flutter Sound Platform Interface (Dart)&lt;/font&gt;" style="rounded=0;whiteSpace=wrap;html=1;fillColor=#CCFF99;" parent="1" vertex="1">
          <mxGeometry x="360" y="520" width="360" height="40" as="geometry" />
        </mxCell>
        <mxCell id="a8Q7tfqqY6BaiDd8TQdQ-69" value="&lt;font style=&quot;font-size: 18px&quot;&gt;Linux Plugin&lt;br&gt;(c++ ?)&lt;/font&gt;" style="rounded=1;whiteSpace=wrap;html=1;fillColor=#FFFFCC;" parent="1" vertex="1">
          <mxGeometry x="360" y="600" width="100" height="80" as="geometry" />
        </mxCell>
        <mxCell id="a8Q7tfqqY6BaiDd8TQdQ-70" value="&lt;font style=&quot;font-size: 18px&quot;&gt;iOS Plugin&lt;br&gt;(Objective C)&lt;/font&gt;" style="rounded=1;whiteSpace=wrap;html=1;fillColor=#CCFF99;" parent="1" vertex="1">
          <mxGeometry x="480" y="600" width="100" height="80" as="geometry" />
        </mxCell>
        <mxCell id="a8Q7tfqqY6BaiDd8TQdQ-71" value="&lt;font style=&quot;font-size: 18px&quot;&gt;Android Plugin&lt;br&gt;(Java)&lt;/font&gt;" style="rounded=1;whiteSpace=wrap;html=1;fillColor=#CCFF99;" parent="1" vertex="1">
          <mxGeometry x="600" y="600" width="120" height="80" as="geometry" />
        </mxCell>
        <mxCell id="a8Q7tfqqY6BaiDd8TQdQ-72" value="&lt;font style=&quot;font-size: 24px&quot;&gt;iOS Plugin&lt;br&gt;(Obective C)&lt;/font&gt;" style="rounded=1;whiteSpace=wrap;html=1;fillColor=#FFFFCC;" parent="1" vertex="1">
          <mxGeometry x="760" y="520" width="280" height="160" as="geometry" />
        </mxCell>
        <mxCell id="a8Q7tfqqY6BaiDd8TQdQ-73" value="&lt;font style=&quot;font-size: 24px&quot;&gt;Android Plugin&lt;br&gt;(Java)&lt;/font&gt;" style="rounded=1;whiteSpace=wrap;html=1;fillColor=#FFFFCC;" parent="1" vertex="1">
          <mxGeometry x="1120" y="520" width="280" height="160" as="geometry" />
        </mxCell>
        <mxCell id="a8Q7tfqqY6BaiDd8TQdQ-75" value="&lt;font style=&quot;font-size: 36px&quot;&gt;The green blocks are already implemented&lt;br&gt;The yellow blocks are not yet implemented&lt;/font&gt;" style="text;html=1;strokeColor=none;fillColor=none;align=center;verticalAlign=middle;whiteSpace=wrap;rounded=0;" parent="1" vertex="1">
          <mxGeometry x="360" y="1241" width="1020" height="20" as="geometry" />
        </mxCell>
        <mxCell id="a8Q7tfqqY6BaiDd8TQdQ-80" value="&lt;font style=&quot;font-size: 24px&quot;&gt;Web Browser&lt;/font&gt;" style="text;html=1;strokeColor=none;fillColor=none;align=center;verticalAlign=middle;whiteSpace=wrap;rounded=0;" parent="1" vertex="1">
          <mxGeometry x="180" y="1110" width="80" height="10" as="geometry" />
        </mxCell>
        <mxCell id="a8Q7tfqqY6BaiDd8TQdQ-81" value="" style="endArrow=classic;html=1;exitX=0.5;exitY=1;exitDx=0;exitDy=0;" parent="1" source="a8Q7tfqqY6BaiDd8TQdQ-64" edge="1">
          <mxGeometry width="50" height="50" relative="1" as="geometry">
            <mxPoint x="550" y="1080" as="sourcePoint" />
            <mxPoint x="580" y="1080" as="targetPoint" />
          </mxGeometry>
        </mxCell>
        <mxCell id="a8Q7tfqqY6BaiDd8TQdQ-86" value="&lt;font style=&quot;font-size: 24px&quot;&gt;Linux&lt;/font&gt;" style="text;html=1;strokeColor=none;fillColor=none;align=center;verticalAlign=middle;whiteSpace=wrap;rounded=0;" parent="1" vertex="1">
          <mxGeometry x="560" y="1100" width="40" height="20" as="geometry" />
        </mxCell>
        <mxCell id="a8Q7tfqqY6BaiDd8TQdQ-88" value="" style="endArrow=classic;html=1;exitX=0.5;exitY=1;exitDx=0;exitDy=0;" parent="1" source="a8Q7tfqqY6BaiDd8TQdQ-66" edge="1">
          <mxGeometry width="50" height="50" relative="1" as="geometry">
            <mxPoint x="1300" y="1110" as="sourcePoint" />
            <mxPoint x="1300" y="1020" as="targetPoint" />
          </mxGeometry>
        </mxCell>
        <mxCell id="a8Q7tfqqY6BaiDd8TQdQ-89" value="" style="endArrow=classic;html=1;exitX=0.5;exitY=1;exitDx=0;exitDy=0;entryX=0.5;entryY=0;entryDx=0;entryDy=0;" parent="1" source="a8Q7tfqqY6BaiDd8TQdQ-65" target="zbaVEVTqMQsuf9E-GIR7-4" edge="1">
          <mxGeometry width="50" height="50" relative="1" as="geometry">
            <mxPoint x="915" y="1100" as="sourcePoint" />
            <mxPoint x="940" y="1080" as="targetPoint" />
          </mxGeometry>
        </mxCell>
        <mxCell id="a8Q7tfqqY6BaiDd8TQdQ-90" value="&lt;font style=&quot;font-size: 24px&quot;&gt;iOS&lt;/font&gt;" style="text;html=1;strokeColor=none;fillColor=none;align=center;verticalAlign=middle;whiteSpace=wrap;rounded=0;" parent="1" vertex="1">
          <mxGeometry x="910" y="1140" width="40" height="20" as="geometry" />
        </mxCell>
        <mxCell id="a8Q7tfqqY6BaiDd8TQdQ-91" value="&lt;font style=&quot;font-size: 24px&quot;&gt;Android&lt;/font&gt;" style="text;html=1;strokeColor=none;fillColor=none;align=center;verticalAlign=middle;whiteSpace=wrap;rounded=0;" parent="1" vertex="1">
          <mxGeometry x="1280" y="1140" width="40" height="20" as="geometry" />
        </mxCell>
        <mxCell id="a8Q7tfqqY6BaiDd8TQdQ-92" value="" style="endArrow=classic;html=1;entryX=0.5;entryY=0;entryDx=0;entryDy=0;exitX=0.183;exitY=1.008;exitDx=0;exitDy=0;exitPerimeter=0;" parent="1" source="a8Q7tfqqY6BaiDd8TQdQ-58" target="a8Q7tfqqY6BaiDd8TQdQ-67" edge="1">
          <mxGeometry width="50" height="50" relative="1" as="geometry">
            <mxPoint x="210" y="340" as="sourcePoint" />
            <mxPoint x="830" y="410" as="targetPoint" />
          </mxGeometry>
        </mxCell>
        <mxCell id="a8Q7tfqqY6BaiDd8TQdQ-94" value="" style="endArrow=classic;html=1;exitX=0.5;exitY=1;exitDx=0;exitDy=0;entryX=0.421;entryY=-0.033;entryDx=0;entryDy=0;entryPerimeter=0;" parent="1" source="a8Q7tfqqY6BaiDd8TQdQ-67" target="a8Q7tfqqY6BaiDd8TQdQ-60" edge="1">
          <mxGeometry width="50" height="50" relative="1" as="geometry">
            <mxPoint x="210" y="770" as="sourcePoint" />
            <mxPoint x="198" y="870" as="targetPoint" />
          </mxGeometry>
        </mxCell>
        <mxCell id="a8Q7tfqqY6BaiDd8TQdQ-95" value="" style="endArrow=classic;html=1;exitX=0.5;exitY=1;exitDx=0;exitDy=0;entryX=0.5;entryY=0;entryDx=0;entryDy=0;" parent="1" source="a8Q7tfqqY6BaiDd8TQdQ-55" target="a8Q7tfqqY6BaiDd8TQdQ-58" edge="1">
          <mxGeometry width="50" height="50" relative="1" as="geometry">
            <mxPoint x="350" y="220" as="sourcePoint" />
            <mxPoint x="400" y="170" as="targetPoint" />
          </mxGeometry>
        </mxCell>
        <mxCell id="a8Q7tfqqY6BaiDd8TQdQ-96" value="" style="endArrow=classic;html=1;exitX=0.5;exitY=1;exitDx=0;exitDy=0;" parent="1" source="a8Q7tfqqY6BaiDd8TQdQ-56" edge="1">
          <mxGeometry width="50" height="50" relative="1" as="geometry">
            <mxPoint x="1010" y="430" as="sourcePoint" />
            <mxPoint x="1080" y="200" as="targetPoint" />
          </mxGeometry>
        </mxCell>
        <mxCell id="a8Q7tfqqY6BaiDd8TQdQ-97" value="" style="endArrow=classic;html=1;exitX=0.688;exitY=1.025;exitDx=0;exitDy=0;exitPerimeter=0;" parent="1" source="a8Q7tfqqY6BaiDd8TQdQ-58" edge="1">
          <mxGeometry width="50" height="50" relative="1" as="geometry">
            <mxPoint x="580" y="420" as="sourcePoint" />
            <mxPoint x="521" y="516" as="targetPoint" />
          </mxGeometry>
        </mxCell>
        <mxCell id="a8Q7tfqqY6BaiDd8TQdQ-98" value="" style="endArrow=classic;html=1;entryX=0.5;entryY=0;entryDx=0;entryDy=0;" parent="1" target="a8Q7tfqqY6BaiDd8TQdQ-69" edge="1">
          <mxGeometry width="50" height="50" relative="1" as="geometry">
            <mxPoint x="410" y="560" as="sourcePoint" />
            <mxPoint x="730" y="400" as="targetPoint" />
          </mxGeometry>
        </mxCell>
        <mxCell id="a8Q7tfqqY6BaiDd8TQdQ-99" value="" style="endArrow=classic;html=1;exitX=0.444;exitY=1.05;exitDx=0;exitDy=0;exitPerimeter=0;entryX=0.4;entryY=-0.012;entryDx=0;entryDy=0;entryPerimeter=0;" parent="1" source="a8Q7tfqqY6BaiDd8TQdQ-68" target="a8Q7tfqqY6BaiDd8TQdQ-70" edge="1">
          <mxGeometry width="50" height="50" relative="1" as="geometry">
            <mxPoint x="780" y="500" as="sourcePoint" />
            <mxPoint x="830" y="450" as="targetPoint" />
          </mxGeometry>
        </mxCell>
        <mxCell id="a8Q7tfqqY6BaiDd8TQdQ-100" value="" style="endArrow=classic;html=1;exitX=0.831;exitY=1.075;exitDx=0;exitDy=0;exitPerimeter=0;entryX=0.5;entryY=0;entryDx=0;entryDy=0;" parent="1" source="a8Q7tfqqY6BaiDd8TQdQ-68" target="a8Q7tfqqY6BaiDd8TQdQ-71" edge="1">
          <mxGeometry width="50" height="50" relative="1" as="geometry">
            <mxPoint x="780" y="500" as="sourcePoint" />
            <mxPoint x="830" y="450" as="targetPoint" />
          </mxGeometry>
        </mxCell>
        <mxCell id="a8Q7tfqqY6BaiDd8TQdQ-101" value="" style="edgeStyle=elbowEdgeStyle;elbow=vertical;endArrow=classic;html=1;exitX=0.42;exitY=1.038;exitDx=0;exitDy=0;exitPerimeter=0;entryX=0.5;entryY=0;entryDx=0;entryDy=0;" parent="1" source="a8Q7tfqqY6BaiDd8TQdQ-69" target="a8Q7tfqqY6BaiDd8TQdQ-64" edge="1">
          <mxGeometry width="50" height="50" relative="1" as="geometry">
            <mxPoint x="780" y="580" as="sourcePoint" />
            <mxPoint x="830" y="530" as="targetPoint" />
          </mxGeometry>
        </mxCell>
        <mxCell id="a8Q7tfqqY6BaiDd8TQdQ-102" value="" style="edgeStyle=elbowEdgeStyle;elbow=vertical;endArrow=classic;html=1;exitX=0.5;exitY=1;exitDx=0;exitDy=0;entryX=0.25;entryY=0;entryDx=0;entryDy=0;" parent="1" source="a8Q7tfqqY6BaiDd8TQdQ-70" target="a8Q7tfqqY6BaiDd8TQdQ-65" edge="1">
          <mxGeometry width="50" height="50" relative="1" as="geometry">
            <mxPoint x="780" y="580" as="sourcePoint" />
            <mxPoint x="830" y="530" as="targetPoint" />
            <Array as="points">
              <mxPoint x="730" y="760" />
            </Array>
          </mxGeometry>
        </mxCell>
        <mxCell id="a8Q7tfqqY6BaiDd8TQdQ-103" value="" style="edgeStyle=elbowEdgeStyle;elbow=vertical;endArrow=classic;html=1;exitX=0.5;exitY=1;exitDx=0;exitDy=0;" parent="1" source="a8Q7tfqqY6BaiDd8TQdQ-71" edge="1">
          <mxGeometry width="50" height="50" relative="1" as="geometry">
            <mxPoint x="780" y="580" as="sourcePoint" />
            <mxPoint x="1240" y="879" as="targetPoint" />
            <Array as="points">
              <mxPoint x="980" y="730" />
            </Array>
          </mxGeometry>
        </mxCell>
        <mxCell id="a8Q7tfqqY6BaiDd8TQdQ-104" value="" style="endArrow=classic;html=1;exitX=0.639;exitY=1.025;exitDx=0;exitDy=0;entryX=0.5;entryY=0;entryDx=0;entryDy=0;exitPerimeter=0;" parent="1" source="a8Q7tfqqY6BaiDd8TQdQ-72" target="a8Q7tfqqY6BaiDd8TQdQ-65" edge="1">
          <mxGeometry width="50" height="50" relative="1" as="geometry">
            <mxPoint x="780" y="580" as="sourcePoint" />
            <mxPoint x="830" y="530" as="targetPoint" />
          </mxGeometry>
        </mxCell>
        <mxCell id="a8Q7tfqqY6BaiDd8TQdQ-105" value="" style="endArrow=classic;html=1;" parent="1" edge="1">
          <mxGeometry width="50" height="50" relative="1" as="geometry">
            <mxPoint x="1300" y="683" as="sourcePoint" />
            <mxPoint x="1300" y="877" as="targetPoint" />
          </mxGeometry>
        </mxCell>
        <mxCell id="a8Q7tfqqY6BaiDd8TQdQ-106" value="" style="endArrow=classic;html=1;entryX=0.479;entryY=0;entryDx=0;entryDy=0;entryPerimeter=0;" parent="1" target="a8Q7tfqqY6BaiDd8TQdQ-72" edge="1">
          <mxGeometry width="50" height="50" relative="1" as="geometry">
            <mxPoint x="894" y="321" as="sourcePoint" />
            <mxPoint x="830" y="530" as="targetPoint" />
          </mxGeometry>
        </mxCell>
        <mxCell id="a8Q7tfqqY6BaiDd8TQdQ-107" value="" style="endArrow=classic;html=1;exitX=0.783;exitY=1;exitDx=0;exitDy=0;exitPerimeter=0;entryX=0.5;entryY=0;entryDx=0;entryDy=0;" parent="1" source="a8Q7tfqqY6BaiDd8TQdQ-59" target="a8Q7tfqqY6BaiDd8TQdQ-73" edge="1">
          <mxGeometry width="50" height="50" relative="1" as="geometry">
            <mxPoint x="780" y="580" as="sourcePoint" />
            <mxPoint x="830" y="530" as="targetPoint" />
          </mxGeometry>
        </mxCell>
        <mxCell id="a8Q7tfqqY6BaiDd8TQdQ-111" value="" style="shape=curlyBracket;whiteSpace=wrap;html=1;rounded=1;strokeColor=#000000;fillColor=#CCFF99;direction=west;" parent="1" vertex="1">
          <mxGeometry x="1430" y="510" width="20" height="180" as="geometry" />
        </mxCell>
        <mxCell id="a8Q7tfqqY6BaiDd8TQdQ-112" value="" style="shape=curlyBracket;whiteSpace=wrap;html=1;rounded=1;strokeColor=#000000;fillColor=#CCFF99;direction=west;" parent="1" vertex="1">
          <mxGeometry x="1430" y="190" width="20" height="140" as="geometry" />
        </mxCell>
        <mxCell id="a8Q7tfqqY6BaiDd8TQdQ-113" value="" style="shape=curlyBracket;whiteSpace=wrap;html=1;rounded=1;strokeColor=#000000;fillColor=#CCFF99;direction=west;" parent="1" vertex="1">
          <mxGeometry x="1460" y="870" width="20" height="140" as="geometry" />
        </mxCell>
        <mxCell id="a8Q7tfqqY6BaiDd8TQdQ-114" value="&lt;font style=&quot;font-size: 24px&quot;&gt;Platform&lt;br&gt;Support&lt;/font&gt;" style="text;html=1;align=center;verticalAlign=middle;resizable=0;points=[];autosize=1;" parent="1" vertex="1">
          <mxGeometry x="1460" y="240" width="100" height="40" as="geometry" />
        </mxCell>
        <mxCell id="a8Q7tfqqY6BaiDd8TQdQ-115" value="&lt;font style=&quot;font-size: 24px&quot;&gt;Interface&lt;br&gt;Layer&lt;/font&gt;" style="text;html=1;align=center;verticalAlign=middle;resizable=0;points=[];autosize=1;" parent="1" vertex="1">
          <mxGeometry x="1450" y="580" width="110" height="40" as="geometry" />
        </mxCell>
        <mxCell id="a8Q7tfqqY6BaiDd8TQdQ-116" value="&lt;font style=&quot;font-size: 24px&quot;&gt;OS&lt;br&gt;Support&lt;/font&gt;" style="text;html=1;align=center;verticalAlign=middle;resizable=0;points=[];autosize=1;" parent="1" vertex="1">
          <mxGeometry x="1480" y="920" width="100" height="40" as="geometry" />
        </mxCell>
        <mxCell id="zbaVEVTqMQsuf9E-GIR7-8" style="edgeStyle=orthogonalEdgeStyle;rounded=0;orthogonalLoop=1;jettySize=auto;html=1;exitX=0.5;exitY=1;exitDx=0;exitDy=0;" parent="1" source="zbaVEVTqMQsuf9E-GIR7-4" edge="1">
          <mxGeometry relative="1" as="geometry">
            <mxPoint x="940" y="1120" as="targetPoint" />
          </mxGeometry>
        </mxCell>
        <mxCell id="zbaVEVTqMQsuf9E-GIR7-4" value="&lt;font style=&quot;font-size: 24px&quot;&gt;FFmpeg&lt;/font&gt;" style="rounded=0;whiteSpace=wrap;html=1;" parent="1" vertex="1">
          <mxGeometry x="800" y="1020" width="280" height="60" as="geometry" />
        </mxCell>
        <mxCell id="zbaVEVTqMQsuf9E-GIR7-10" style="edgeStyle=orthogonalEdgeStyle;rounded=0;orthogonalLoop=1;jettySize=auto;html=1;exitX=0.5;exitY=1;exitDx=0;exitDy=0;" parent="1" source="zbaVEVTqMQsuf9E-GIR7-5" edge="1">
          <mxGeometry relative="1" as="geometry">
            <mxPoint x="1300" y="1120" as="targetPoint" />
          </mxGeometry>
        </mxCell>
        <mxCell id="zbaVEVTqMQsuf9E-GIR7-5" value="&lt;font style=&quot;font-size: 24px&quot;&gt;FFmpeg&lt;/font&gt;" style="rounded=0;whiteSpace=wrap;html=1;" parent="1" vertex="1">
          <mxGeometry x="1160" y="1020" width="280" height="60" as="geometry" />
        </mxCell>
        <mxCell id="-q3ObJ8PF4oO2gLdiawV-1" value="" style="rounded=0;whiteSpace=wrap;html=1;" vertex="1" parent="1">
          <mxGeometry x="510" y="530" width="120" height="60" as="geometry" />
        </mxCell>
        <mxCell id="-q3ObJ8PF4oO2gLdiawV-2" value="" style="rounded=0;whiteSpace=wrap;html=1;" vertex="1" parent="1">
          <mxGeometry x="510" y="530" width="120" height="60" as="geometry" />
        </mxCell>
      </root>
    </mxGraphModel>
  </diagram>
</mxfile>
